ISO-10303-21;
HEADER;
FILE_DESCRIPTION (( 'STEP AP214' ),
    '1' );
FILE_NAME ('glider base_4_CNC.STEP',
    '2026-09-16T16:15:41',
    ( '' ),
    ( '' ),
    'SwSTEP 2.0',
    'SolidWorks 2025',
    '' );
FILE_SCHEMA (( 'AUTOMOTIVE_DESIGN' ));
ENDSEC;

DATA;
#1 = ORIENTED_EDGE ( 'NONE', *, *, #535, .F. ) ;
#2 = DIRECTION ( 'NONE',  ( 0.000000000000000000, 0.000000000000000000, 1.000000000000000000 ) ) ;
#3 = DIRECTION ( 'NONE',  ( 0.000000000000000000, 0.000000000000000000, 1.000000000000000000 ) ) ;
#4 = VECTOR ( 'NONE', #279, 1000.000000000000000 ) ;
#5 = DIRECTION ( 'NONE',  ( 0.000000000000000000, 0.000000000000000000, 1.000000000000000000 ) ) ;
#6 = VERTEX_POINT ( 'NONE', #581 ) ;
#7 = DIRECTION ( 'NONE',  ( 0.000000000000000000, 0.000000000000000000, 1.000000000000000000 ) ) ;
#8 = EDGE_CURVE ( 'NONE', #251, #387, #851, .T. ) ;
#9 = ORIENTED_EDGE ( 'NONE', *, *, #527, .T. ) ;
#10 = LINE ( 'NONE', #335, #824 ) ;
#11 = ORIENTED_EDGE ( 'NONE', *, *, #815, .T. ) ;
#12 = CARTESIAN_POINT ( 'NONE',  ( -8.530087563170265952, -5.291502622129180544, -1.612035025268107713 ) ) ;
#13 = CARTESIAN_POINT ( 'NONE',  ( -6.000000000000000000, -8.485281374238574870, 3.000000000000001332 ) ) ;
#14 = VECTOR ( 'NONE', #354, 1000.000000000000000 ) ;
#15 = ORIENTED_EDGE ( 'NONE', *, *, #667, .F. ) ;
#16 = LINE ( 'NONE', #432, #308 ) ;
#17 = AXIS2_PLACEMENT_3D ( 'NONE', #749, #326, #124 ) ;
#18 = CIRCLE ( 'NONE', #231, 2.000000000000000000 ) ;
#19 = EDGE_LOOP ( 'NONE', ( #183, #330 ) ) ;
#20 = ORIENTED_EDGE ( 'NONE', *, *, #601, .T. ) ;
#21 = DIRECTION ( 'NONE',  ( 0.000000000000000000, 1.000000000000000000, 0.000000000000000000 ) ) ;
#22 = DIRECTION ( 'NONE',  ( 0.000000000000000000, 0.000000000000000000, 1.000000000000000000 ) ) ;
#23 = ORIENTED_EDGE ( 'NONE', *, *, #854, .T. ) ;
#24 = EDGE_LOOP ( 'NONE', ( #831, #254, #868, #558, #20, #84, #775, #431 ) ) ;
#25 = CARTESIAN_POINT ( 'NONE',  ( 0.000000000000000000, 3.000000000000000000, 4.000000000000000000 ) ) ;
#26 = ADVANCED_FACE ( 'NONE', ( #885, #163 ), #302, .T. ) ;
#27 = FACE_OUTER_BOUND ( 'NONE', #734, .T. ) ;
#28 = ADVANCED_FACE ( 'NONE', ( #656 ), #825, .F. ) ;
#29 = CIRCLE ( 'NONE', #473, 1.199999999999999734 ) ;
#30 = ORIENTED_EDGE ( 'NONE', *, *, #877, .T. ) ;
#31 = LINE ( 'NONE', #505, #54 ) ;
#32 = CARTESIAN_POINT ( 'NONE',  ( -4.000000000000000000, 3.000000000000000000, 7.000000000000000000 ) ) ;
#33 = CIRCLE ( 'NONE', #464, 2.100000000000000089 ) ;
#34 = CIRCLE ( 'NONE', #744, 2.000000000000000000 ) ;
#35 = CARTESIAN_POINT ( 'NONE',  ( 0.000000000000000000, 2.000000000000000000, -4.000000000000000000 ) ) ;
#36 = ORIENTED_EDGE ( 'NONE', *, *, #469, .F. ) ;
#37 = CARTESIAN_POINT ( 'NONE',  ( 0.000000000000000000, 2.000000000000000000, 4.000000000000000000 ) ) ;
#38 = DIRECTION ( 'NONE',  ( 0.000000000000000000, 0.000000000000000000, 1.000000000000000000 ) ) ;
#39 = ADVANCED_FACE ( 'NONE', ( #375 ), #745, .T. ) ;
#40 = ORIENTED_EDGE ( 'NONE', *, *, #527, .F. ) ;
#41 = DIRECTION ( 'NONE',  ( 0.000000000000000000, 0.000000000000000000, 1.000000000000000000 ) ) ;
#42 = DIRECTION ( 'NONE',  ( 0.000000000000000000, 0.000000000000000000, 1.000000000000000000 ) ) ;
#43 = ORIENTED_EDGE ( 'NONE', *, *, #51, .T. ) ;
#44 = DIRECTION ( 'NONE',  ( -0.000000000000000000, -1.000000000000000000, -0.000000000000000000 ) ) ;
#45 = AXIS2_PLACEMENT_3D ( 'NONE', #185, #884, #894 ) ;
#46 = VERTEX_POINT ( 'NONE', #321 ) ;
#47 = DIRECTION ( 'NONE',  ( 0.000000000000000000, 0.000000000000000000, 1.000000000000000000 ) ) ;
#48 = ORIENTED_EDGE ( 'NONE', *, *, #469, .T. ) ;
#49 = FACE_OUTER_BOUND ( 'NONE', #306, .T. ) ;
#50 = CARTESIAN_POINT ( 'NONE',  ( 0.000000000000000000, 2.000000000000000000, 4.000000000000000000 ) ) ;
#51 = EDGE_CURVE ( 'NONE', #528, #862, #465, .T. ) ;
#52 = VERTEX_POINT ( 'NONE', #606 ) ;
#53 = DIRECTION ( 'NONE',  ( 0.000000000000000000, 0.000000000000000000, -1.000000000000000000 ) ) ;
#54 = VECTOR ( 'NONE', #704, 1000.000000000000000 ) ;
#55 = MANIFOLD_SOLID_BREP ( 'Chamfer1', #697 ) ;
#56 = FACE_OUTER_BOUND ( 'NONE', #439, .T. ) ;
#57 = CIRCLE ( 'NONE', #741, 3.000000000000001332 ) ;
#58 = ORIENTED_EDGE ( 'NONE', *, *, #479, .T. ) ;
#59 = VECTOR ( 'NONE', #611, 1000.000000000000000 ) ;
#60 = ADVANCED_FACE ( 'NONE', ( #615 ), #751, .F. ) ;
#61 = ORIENTED_EDGE ( 'NONE', *, *, #352, .T. ) ;
#62 =( NAMED_UNIT ( * ) SI_UNIT ( $, .STERADIAN. ) SOLID_ANGLE_UNIT ( ) );
#63 = CARTESIAN_POINT ( 'NONE',  ( -6.000000000000000000, 9.000000000000001776, 0.000000000000000000 ) ) ;
#64 = CARTESIAN_POINT ( 'NONE',  ( -5.686725042113510042, 0.000000000000000000, 6.074690016845404550 ) ) ;
#65 = ORIENTED_EDGE ( 'NONE', *, *, #79, .T. ) ;
#66 = DIRECTION ( 'NONE',  ( -0.000000000000000000, -1.000000000000000000, -0.000000000000000000 ) ) ;
#67 = CARTESIAN_POINT ( 'NONE',  ( 6.000000000000000000, 3.000000000000000000, -5.000000000000000000 ) ) ;
#68 = CIRCLE ( 'NONE', #579, 1.199999999999999734 ) ;
#69 = CARTESIAN_POINT ( 'NONE',  ( -6.000000000000000000, -8.485281374238574870, 0.000000000000000000 ) ) ;
#70 = ORIENTED_EDGE ( 'NONE', *, *, #455, .T. ) ;
#71 = DIRECTION ( 'NONE',  ( 1.000000000000000000, 0.000000000000000000, 0.000000000000000000 ) ) ;
#72 = AXIS2_PLACEMENT_3D ( 'NONE', #622, #277, #840 ) ;
#73 = DIRECTION ( 'NONE',  ( 0.000000000000000000, 1.000000000000000000, 0.000000000000000000 ) ) ;
#74 = AXIS2_PLACEMENT_3D ( 'NONE', #587, #256, #754 ) ;
#75 = ADVANCED_FACE ( 'NONE', ( #514 ), #445, .F. ) ;
#76 = LINE ( 'NONE', #13, #4 ) ;
#77 = VERTEX_POINT ( 'NONE', #395 ) ;
#78 = DIRECTION ( 'NONE',  ( 0.000000000000000000, 0.000000000000000000, 1.000000000000000000 ) ) ;
#79 = EDGE_CURVE ( 'NONE', #324, #95, #517, .T. ) ;
#80 = ORIENTED_EDGE ( 'NONE', *, *, #273, .T. ) ;
#81 = FACE_OUTER_BOUND ( 'NONE', #494, .T. ) ;
#82 = DIRECTION ( 'NONE',  ( 0.000000000000000000, -1.000000000000000000, 0.000000000000000000 ) ) ;
#83 = VECTOR ( 'NONE', #307, 1000.000000000000000 ) ;
#84 = ORIENTED_EDGE ( 'NONE', *, *, #385, .T. ) ;
#85 = ORIENTED_EDGE ( 'NONE', *, *, #119, .F. ) ;
#86 = DIRECTION ( 'NONE',  ( -0.8433625210567552433, 0.000000000000000000, -0.5373450084227024970 ) ) ;
#87 = CARTESIAN_POINT ( 'NONE',  ( 0.000000000000000000, 2.000000000000000000, 4.000000000000000000 ) ) ;
#88 = AXIS2_PLACEMENT_3D ( 'NONE', #87, #516, #438 ) ;
#89 = PRODUCT_DEFINITION_CONTEXT ( 'detailed design', #705, 'design' ) ;
#90 = EDGE_LOOP ( 'NONE', ( #287, #678, #899, #543 ) ) ;
#91 = ADVANCED_FACE ( 'NONE', ( #169, #56 ), #186, .T. ) ;
#92 = DIRECTION ( 'NONE',  ( 0.000000000000000000, 1.000000000000000000, 0.000000000000000000 ) ) ;
#93 = EDGE_CURVE ( 'NONE', #52, #629, #327, .T. ) ;
#94 = CARTESIAN_POINT ( 'NONE',  ( -6.000000000000000000, 8.399999999999996803, -1.499999999999999556 ) ) ;
#95 = VERTEX_POINT ( 'NONE', #895 ) ;
#96 = VERTEX_POINT ( 'NONE', #344 ) ;
#97 = CARTESIAN_POINT ( 'NONE',  ( -8.530087563170265952, 0.000000000000000000, 1.612035025268107935 ) ) ;
#98 = CARTESIAN_POINT ( 'NONE',  ( -5.686725042113510931, 0.000000000000000000, -6.074690016845405438 ) ) ;
#99 = VECTOR ( 'NONE', #269, 1000.000000000000000 ) ;
#100 = DIRECTION ( 'NONE',  ( -0.000000000000000000, -1.000000000000000000, -0.000000000000000000 ) ) ;
#101 = PLANE ( 'NONE',  #128 ) ;
#102 = DIRECTION ( 'NONE',  ( -0.000000000000000000, -1.000000000000000000, -0.000000000000000000 ) ) ;
#103 = AXIS2_PLACEMENT_3D ( 'NONE', #305, #286, #224 ) ;
#104 = MECHANICAL_DESIGN_GEOMETRIC_PRESENTATION_REPRESENTATION (  '', ( #610 ), #893 ) ;
#105 =( NAMED_UNIT ( * ) PLANE_ANGLE_UNIT ( ) SI_UNIT ( $, .RADIAN. ) );
#106 = ORIENTED_EDGE ( 'NONE', *, *, #109, .F. ) ;
#107 = DIRECTION ( 'NONE',  ( 0.000000000000000000, -1.000000000000000000, 0.000000000000000000 ) ) ;
#108 = LINE ( 'NONE', #94, #115 ) ;
#109 = EDGE_CURVE ( 'NONE', #886, #799, #18, .T. ) ;
#110 = PRODUCT ( 'glider base_4_CNC', 'glider base_4_CNC', '', ( #753 ) ) ;
#111 = ORIENTED_EDGE ( 'NONE', *, *, #489, .F. ) ;
#112 = FACE_OUTER_BOUND ( 'NONE', #896, .T. ) ;
#113 = ORIENTED_EDGE ( 'NONE', *, *, #667, .T. ) ;
#114 = CARTESIAN_POINT ( 'NONE',  ( -6.000000000000000000, 8.399999999999996803, 0.000000000000000000 ) ) ;
#115 = VECTOR ( 'NONE', #644, 1000.000000000000114 ) ;
#116 = AXIS2_PLACEMENT_3D ( 'NONE', #791, #153, #236 ) ;
#117 = VERTEX_POINT ( 'NONE', #417 ) ;
#118 = CARTESIAN_POINT ( 'NONE',  ( -8.530087563170265952, 3.000000000000000000, -1.612035025268107713 ) ) ;
#119 = EDGE_CURVE ( 'NONE', #77, #483, #819, .T. ) ;
#120 = EDGE_CURVE ( 'NONE', #126, #511, #34, .T. ) ;
#121 = SURFACE_SIDE_STYLE ('',( #675 ) ) ;
#122 = VERTEX_POINT ( 'NONE', #64 ) ;
#123 = FACE_OUTER_BOUND ( 'NONE', #90, .T. ) ;
#124 = DIRECTION ( 'NONE',  ( -1.000000000000000000, 0.000000000000000000, -0.000000000000000000 ) ) ;
#125 = DIRECTION ( 'NONE',  ( 0.000000000000000000, 0.000000000000000000, -1.000000000000000000 ) ) ;
#126 = VERTEX_POINT ( 'NONE', #135 ) ;
#127 = CARTESIAN_POINT ( 'NONE',  ( -6.000000000000000000, 9.000000000000001776, 0.000000000000000000 ) ) ;
#128 = AXIS2_PLACEMENT_3D ( 'NONE', #578, #359, #790 ) ;
#129 = PRESENTATION_STYLE_ASSIGNMENT (( #729 ) ) ;
#130 = EDGE_CURVE ( 'NONE', #483, #746, #482, .T. ) ;
#131 = AXIS2_PLACEMENT_3D ( 'NONE', #560, #547, #491 ) ;
#132 = ORIENTED_EDGE ( 'NONE', *, *, #258, .F. ) ;
#133 = APPLICATION_PROTOCOL_DEFINITION ( 'draft international standard', 'automotive_design', 1998, #705 ) ;
#134 = FACE_OUTER_BOUND ( 'NONE', #413, .T. ) ;
#135 = CARTESIAN_POINT ( 'NONE',  ( -4.000000000000000000, 3.000000000000000000, -7.000000000000000000 ) ) ;
#136 = ORIENTED_EDGE ( 'NONE', *, *, #877, .F. ) ;
#137 = APPLICATION_PROTOCOL_DEFINITION ( 'draft international standard', 'automotive_design', 1998, #406 ) ;
#138 = CARTESIAN_POINT ( 'NONE',  ( 0.000000000000000000, 2.000000000000000000, 4.000000000000000000 ) ) ;
#139 = FACE_OUTER_BOUND ( 'NONE', #274, .T. ) ;
#140 = VERTEX_POINT ( 'NONE', #849 ) ;
#141 = CARTESIAN_POINT ( 'NONE',  ( 2.571758278209441957E-16, 2.000000000000000000, 1.899999999999999689 ) ) ;
#142 = CIRCLE ( 'NONE', #368, 1.199999999999999734 ) ;
#143 = CARTESIAN_POINT ( 'NONE',  ( 4.000000000000000000, 0.000000000000000000, -5.000000000000000000 ) ) ;
#144 = ORIENTED_EDGE ( 'NONE', *, *, #389, .F. ) ;
#145 = VECTOR ( 'NONE', #575, 1000.000000000000000 ) ;
#146 = DIRECTION ( 'NONE',  ( 0.000000000000000000, 1.000000000000000000, 0.000000000000000000 ) ) ;
#147 = CARTESIAN_POINT ( 'NONE',  ( -6.000000000000000000, 9.000000000000001776, 0.000000000000000000 ) ) ;
#148 = ORIENTED_EDGE ( 'NONE', *, *, #601, .F. ) ;
#149 = CARTESIAN_POINT ( 'NONE',  ( 0.000000000000000000, 0.000000000000000000, 4.000000000000000000 ) ) ;
#150 = DIRECTION ( 'NONE',  ( 0.000000000000000000, 1.000000000000000000, 0.000000000000000000 ) ) ;
#151 = ORIENTED_EDGE ( 'NONE', *, *, #429, .T. ) ;
#152 = CARTESIAN_POINT ( 'NONE',  ( -6.000000000000000000, -8.485281374238574870, 0.000000000000000000 ) ) ;
#153 = DIRECTION ( 'NONE',  ( -0.000000000000000000, -1.000000000000000000, -0.000000000000000000 ) ) ;
#154 = EDGE_CURVE ( 'NONE', #251, #511, #215, .T. ) ;
#155 = EDGE_CURVE ( 'NONE', #234, #617, #816, .T. ) ;
#156 = ORIENTED_EDGE ( 'NONE', *, *, #232, .T. ) ;
#157 = ORIENTED_EDGE ( 'NONE', *, *, #313, .T. ) ;
#158 = DIRECTION ( 'NONE',  ( 0.000000000000000000, 0.000000000000000000, 1.000000000000000000 ) ) ;
#159 = CARTESIAN_POINT ( 'NONE',  ( 1.469576158976823799E-16, 2.000000000000000000, -2.800000000000000266 ) ) ;
#160 = ORIENTED_EDGE ( 'NONE', *, *, #693, .F. ) ;
#161 = DIRECTION ( 'NONE',  ( -0.5373450084227023860, 0.000000000000000000, -0.8433625210567552433 ) ) ;
#162 = DIRECTION ( 'NONE',  ( 0.000000000000000000, 0.000000000000000000, 1.000000000000000000 ) ) ;
#163 = FACE_OUTER_BOUND ( 'NONE', #467, .T. ) ;
#164 = ORIENTED_EDGE ( 'NONE', *, *, #508, .F. ) ;
#165 = DIRECTION ( 'NONE',  ( 0.000000000000000000, 1.000000000000000000, 0.000000000000000000 ) ) ;
#166 = ADVANCED_FACE ( 'NONE', ( #556 ), #205, .F. ) ;
#167 = FACE_OUTER_BOUND ( 'NONE', #233, .T. ) ;
#168 = AXIS2_PLACEMENT_3D ( 'NONE', #437, #362, #297 ) ;
#169 = FACE_BOUND ( 'NONE', #462, .T. ) ;
#170 = ORIENTED_EDGE ( 'NONE', *, *, #182, .F. ) ;
#171 = CARTESIAN_POINT ( 'NONE',  ( 4.000000000000000000, 3.000000000000000000, 5.000000000000000000 ) ) ;
#172 = DIRECTION ( 'NONE',  ( -0.000000000000000000, -1.000000000000000000, -0.000000000000000000 ) ) ;
#173 = EDGE_CURVE ( 'NONE', #288, #126, #198, .T. ) ;
#174 = AXIS2_PLACEMENT_3D ( 'NONE', #270, #82, #835 ) ;
#175 = ORIENTED_EDGE ( 'NONE', *, *, #866, .F. ) ;
#176 = DIRECTION ( 'NONE',  ( -0.000000000000000000, 1.000000000000000000, -0.000000000000000000 ) ) ;
#177 = LINE ( 'NONE', #458, #314 ) ;
#178 = AXIS2_PLACEMENT_3D ( 'NONE', #661, #44, #310 ) ;
#179 = ORIENTED_EDGE ( 'NONE', *, *, #311, .T. ) ;
#180 = FACE_BOUND ( 'NONE', #668, .T. ) ;
#181 = CIRCLE ( 'NONE', #860, 2.100000000000000089 ) ;
#182 = EDGE_CURVE ( 'NONE', #531, #96, #349, .T. ) ;
#183 = ORIENTED_EDGE ( 'NONE', *, *, #155, .F. ) ;
#184 = LINE ( 'NONE', #118, #415 ) ;
#185 = CARTESIAN_POINT ( 'NONE',  ( -6.000000000000000000, 8.399999999999996803, 0.000000000000000000 ) ) ;
#186 = PLANE ( 'NONE',  #300 ) ;
#187 = PRESENTATION_LAYER_ASSIGNMENT (  '', '', ( #610 ) ) ;
#188 = VERTEX_POINT ( 'NONE', #477 ) ;
#189 = CARTESIAN_POINT ( 'NONE',  ( -6.000000000000000000, 8.399999999999996803, 0.000000000000000000 ) ) ;
#190 = CARTESIAN_POINT ( 'NONE',  ( -5.686725042113510042, -5.291502622129180544, 6.074690016845404550 ) ) ;
#191 = VECTOR ( 'NONE', #268, 1000.000000000000000 ) ;
#192 = VERTEX_POINT ( 'NONE', #696 ) ;
#193 = FACE_OUTER_BOUND ( 'NONE', #838, .T. ) ;
#194 = FILL_AREA_STYLE_COLOUR ( '', #374 ) ;
#195 = VERTEX_POINT ( 'NONE', #619 ) ;
#196 = LINE ( 'NONE', #765, #191 ) ;
#197 = DIRECTION ( 'NONE',  ( 0.000000000000000000, 0.000000000000000000, -1.000000000000000000 ) ) ;
#198 = LINE ( 'NONE', #706, #402 ) ;
#199 = VECTOR ( 'NONE', #662, 1000.000000000000000 ) ;
#200 = ORIENTED_EDGE ( 'NONE', *, *, #900, .F. ) ;
#201 = CARTESIAN_POINT ( 'NONE',  ( -6.000000000000000000, 9.000000000000001776, -3.000000000000001332 ) ) ;
#202 = CARTESIAN_POINT ( 'NONE',  ( 0.000000000000000000, 2.000000000000000000, 4.000000000000000000 ) ) ;
#203 = EDGE_LOOP ( 'NONE', ( #40, #724, #106, #200 ) ) ;
#204 = DIRECTION ( 'NONE',  ( 0.000000000000000000, 1.000000000000000000, 0.000000000000000000 ) ) ;
#205 = CYLINDRICAL_SURFACE ( 'NONE', #131, 1.199999999999999734 ) ;
#206 = EDGE_CURVE ( 'NONE', #554, #140, #525, .T. ) ;
#207 = ORIENTED_EDGE ( 'NONE', *, *, #628, .T. ) ;
#208 = EDGE_CURVE ( 'NONE', #617, #234, #834, .T. ) ;
#209 = DIRECTION ( 'NONE',  ( 0.000000000000000000, 0.000000000000000000, 1.000000000000000000 ) ) ;
#210 = CIRCLE ( 'NONE', #242, 1.199999999999999734 ) ;
#211 = DIRECTION ( 'NONE',  ( 0.000000000000000000, 0.000000000000000000, 1.000000000000000000 ) ) ;
#212 = EDGE_LOOP ( 'NONE', ( #410, #353, #756, #111 ) ) ;
#213 = CIRCLE ( 'NONE', #553, 2.000000000000000000 ) ;
#214 = DIRECTION ( 'NONE',  ( 0.000000000000000000, 1.000000000000000000, 0.000000000000000000 ) ) ;
#215 = LINE ( 'NONE', #779, #583 ) ;
#216 = ORIENTED_EDGE ( 'NONE', *, *, #535, .T. ) ;
#217 = ORIENTED_EDGE ( 'NONE', *, *, #677, .F. ) ;
#218 = CARTESIAN_POINT ( 'NONE',  ( -6.000000000000000000, 3.000000000000000000, 0.000000000000000000 ) ) ;
#219 = EDGE_CURVE ( 'NONE', #746, #350, #245, .T. ) ;
#220 = PRODUCT_DEFINITION_FORMATION_WITH_SPECIFIED_SOURCE ( 'ANY', '', #110, .NOT_KNOWN. ) ;
#221 = ORIENTED_EDGE ( 'NONE', *, *, #557, .F. ) ;
#222 = ORIENTED_EDGE ( 'NONE', *, *, #489, .T. ) ;
#223 = DIRECTION ( 'NONE',  ( 0.000000000000000000, 1.000000000000000000, 0.000000000000000000 ) ) ;
#224 = DIRECTION ( 'NONE',  ( 0.000000000000000000, 0.000000000000000000, 1.000000000000000000 ) ) ;
#225 = ADVANCED_FACE ( 'NONE', ( #139 ), #635, .T. ) ;
#226 = ORIENTED_EDGE ( 'NONE', *, *, #552, .T. ) ;
#227 = ORIENTED_EDGE ( 'NONE', *, *, #763, .T. ) ;
#228 = DIRECTION ( 'NONE',  ( 0.000000000000000000, 0.000000000000000000, 1.000000000000000000 ) ) ;
#229 = CIRCLE ( 'NONE', #582, 3.000000000000001332 ) ;
#230 = CARTESIAN_POINT ( 'NONE',  ( -6.000000000000000000, 0.000000000000000000, 0.000000000000000000 ) ) ;
#231 = AXIS2_PLACEMENT_3D ( 'NONE', #143, #275, #551 ) ;
#232 = EDGE_CURVE ( 'NONE', #424, #861, #358, .T. ) ;
#233 = EDGE_LOOP ( 'NONE', ( #58, #70, #637, #151 ) ) ;
#234 = VERTEX_POINT ( 'NONE', #412 ) ;
#235 = DIRECTION ( 'NONE',  ( -0.000000000000000000, -1.000000000000000000, -0.000000000000000000 ) ) ;
#236 = DIRECTION ( 'NONE',  ( 0.000000000000000000, 0.000000000000000000, -1.000000000000000000 ) ) ;
#237 = DIRECTION ( 'NONE',  ( 0.000000000000000000, 0.000000000000000000, 1.000000000000000000 ) ) ;
#238 = ORIENTED_EDGE ( 'NONE', *, *, #219, .F. ) ;
#239 = CARTESIAN_POINT ( 'NONE',  ( 0.000000000000000000, 3.000000000000000000, 4.000000000000000000 ) ) ;
#240 = ADVANCED_FACE ( 'NONE', ( #689 ), #486, .T. ) ;
#241 = CARTESIAN_POINT ( 'NONE',  ( -6.000000000000000000, -1.242640687119284770, -1.499999999999999556 ) ) ;
#242 = AXIS2_PLACEMENT_3D ( 'NONE', #149, #21, #289 ) ;
#243 = ORIENTED_EDGE ( 'NONE', *, *, #557, .T. ) ;
#244 = CARTESIAN_POINT ( 'NONE',  ( -6.000000000000000000, -1.242640687119284770, 1.499999999999999556 ) ) ;
#245 = CIRCLE ( 'NONE', #758, 2.100000000000004530 ) ;
#246 = VERTEX_POINT ( 'NONE', #272 ) ;
#247 = CARTESIAN_POINT ( 'NONE',  ( -6.000000000000000000, 2.999999999999999112, 3.000000000000001332 ) ) ;
#248 = EDGE_CURVE ( 'NONE', #805, #140, #76, .T. ) ;
#249 = ADVANCED_FACE ( 'NONE', ( #784 ), #580, .F. ) ;
#250 = VECTOR ( 'NONE', #600, 1000.000000000000000 ) ;
#251 = VERTEX_POINT ( 'NONE', #98 ) ;
#252 = CARTESIAN_POINT ( 'NONE',  ( 0.000000000000000000, 2.000000000000000000, -1.899999999999999689 ) ) ;
#253 = CARTESIAN_POINT ( 'NONE',  ( 0.000000000000000000, 2.000000000000000000, -4.000000000000000000 ) ) ;
#254 = ORIENTED_EDGE ( 'NONE', *, *, #258, .T. ) ;
#255 = CYLINDRICAL_SURFACE ( 'NONE', #898, 2.000000000000000000 ) ;
#256 = DIRECTION ( 'NONE',  ( -0.000000000000000000, 1.000000000000000000, -0.000000000000000000 ) ) ;
#257 = AXIS2_PLACEMENT_3D ( 'NONE', #733, #102, #38 ) ;
#258 = EDGE_CURVE ( 'NONE', #561, #276, #57, .T. ) ;
#259 = ORIENTED_EDGE ( 'NONE', *, *, #728, .F. ) ;
#260 = FACE_OUTER_BOUND ( 'NONE', #613, .T. ) ;
#261 = DIRECTION ( 'NONE',  ( 0.000000000000000000, 1.000000000000000000, 0.000000000000000000 ) ) ;
#262 = ORIENTED_EDGE ( 'NONE', *, *, #109, .T. ) ;
#263 = DIRECTION ( 'NONE',  ( -0.000000000000000000, -1.000000000000000000, -0.000000000000000000 ) ) ;
#264 = DIRECTION ( 'NONE',  ( 0.000000000000000000, 0.000000000000000000, 1.000000000000000000 ) ) ;
#265 = ADVANCED_FACE ( 'NONE', ( #167 ), #585, .F. ) ;
#266 = DIRECTION ( 'NONE',  ( 0.000000000000000000, 0.7071067811865474617, 0.7071067811865474617 ) ) ;
#267 = EDGE_LOOP ( 'NONE', ( #599, #291 ) ) ;
#268 = DIRECTION ( 'NONE',  ( 0.5373450084227024970, 0.000000000000000000, 0.8433625210567552433 ) ) ;
#269 = DIRECTION ( 'NONE',  ( -0.000000000000000000, 1.000000000000000000, -0.000000000000000000 ) ) ;
#270 = CARTESIAN_POINT ( 'NONE',  ( -4.000000000000000000, 3.000000000000000000, -5.000000000000000000 ) ) ;
#271 = ORIENTED_EDGE ( 'NONE', *, *, #545, .F. ) ;
#272 = CARTESIAN_POINT ( 'NONE',  ( 2.571758278209441957E-16, 3.000000000000000000, 1.899999999999999689 ) ) ;
#273 = EDGE_CURVE ( 'NONE', #540, #77, #299, .T. ) ;
#274 = EDGE_LOOP ( 'NONE', ( #498, #713, #319, #588 ) ) ;
#275 = DIRECTION ( 'NONE',  ( -0.000000000000000000, -1.000000000000000000, -0.000000000000000000 ) ) ;
#276 = VERTEX_POINT ( 'NONE', #870 ) ;
#277 = DIRECTION ( 'NONE',  ( -0.000000000000000000, 1.000000000000000000, -0.000000000000000000 ) ) ;
#278 = CIRCLE ( 'NONE', #740, 2.100000000000000089 ) ;
#279 = DIRECTION ( 'NONE',  ( 0.000000000000000000, 1.000000000000000000, 0.000000000000000000 ) ) ;
#280 = ORIENTED_EDGE ( 'NONE', *, *, #638, .T. ) ;
#281 = ADVANCED_FACE ( 'NONE', ( #27 ), #360, .F. ) ;
#282 = AXIS2_PLACEMENT_3D ( 'NONE', #294, #513, #162 ) ;
#283 = EDGE_LOOP ( 'NONE', ( #430, #451 ) ) ;
#284 = DIRECTION ( 'NONE',  ( 0.000000000000000000, 1.000000000000000000, 0.000000000000000000 ) ) ;
#285 = AXIS2_PLACEMENT_3D ( 'NONE', #568, #357, #792 ) ;
#286 = DIRECTION ( 'NONE',  ( -0.000000000000000000, 1.000000000000000000, -0.000000000000000000 ) ) ;
#287 = ORIENTED_EDGE ( 'NONE', *, *, #409, .F. ) ;
#288 = VERTEX_POINT ( 'NONE', #570 ) ;
#289 = DIRECTION ( 'NONE',  ( 0.000000000000000000, 0.000000000000000000, 1.000000000000000000 ) ) ;
#290 = CARTESIAN_POINT ( 'NONE',  ( 6.000000000000000000, 3.000000000000000000, -7.000000000000000000 ) ) ;
#291 = ORIENTED_EDGE ( 'NONE', *, *, #206, .T. ) ;
#292 = ORIENTED_EDGE ( 'NONE', *, *, #154, .F. ) ;
#293 = FACE_BOUND ( 'NONE', #426, .T. ) ;
#294 = CARTESIAN_POINT ( 'NONE',  ( -6.000000000000000000, 2.999999999999999112, 0.000000000000000000 ) ) ;
#295 = AXIS2_PLACEMENT_3D ( 'NONE', #218, #235, #304 ) ;
#296 = ORIENTED_EDGE ( 'NONE', *, *, #677, .T. ) ;
#297 = DIRECTION ( 'NONE',  ( 0.000000000000000000, 0.000000000000000000, 1.000000000000000000 ) ) ;
#298 = AXIS2_PLACEMENT_3D ( 'NONE', #757, #626, #197 ) ;
#299 = LINE ( 'NONE', #241, #345 ) ;
#300 = AXIS2_PLACEMENT_3D ( 'NONE', #50, #539, #472 ) ;
#301 = PRODUCT_RELATED_PRODUCT_CATEGORY ( 'part', '', ( #110 ) ) ;
#302 = PLANE ( 'NONE',  #538 ) ;
#303 = ORIENTED_EDGE ( 'NONE', *, *, #120, .T. ) ;
#304 = DIRECTION ( 'NONE',  ( 0.000000000000000000, 0.000000000000000000, 1.000000000000000000 ) ) ;
#305 = CARTESIAN_POINT ( 'NONE',  ( -6.000000000000000000, -1.242640687119284770, 0.000000000000000000 ) ) ;
#306 = EDGE_LOOP ( 'NONE', ( #398, #144, #826, #175 ) ) ;
#307 = DIRECTION ( 'NONE',  ( -0.000000000000000000, 1.000000000000000000, -0.000000000000000000 ) ) ;
#308 = VECTOR ( 'NONE', #589, 1000.000000000000000 ) ;
#309 = EDGE_LOOP ( 'NONE', ( #259, #764, #11, #717 ) ) ;
#310 = DIRECTION ( 'NONE',  ( 0.000000000000000000, 0.000000000000000000, 1.000000000000000000 ) ) ;
#311 = EDGE_CURVE ( 'NONE', #698, #576, #597, .T. ) ;
#312 = LINE ( 'NONE', #190, #199 ) ;
#313 = EDGE_CURVE ( 'NONE', #6, #46, #448, .T. ) ;
#314 = VECTOR ( 'NONE', #382, 1000.000000000000000 ) ;
#315 = EDGE_LOOP ( 'NONE', ( #23, #682, #164, #420 ) ) ;
#316 = LINE ( 'NONE', #252, #250 ) ;
#317 = CARTESIAN_POINT ( 'NONE',  ( 0.000000000000000000, 2.000000000000000000, -4.000000000000000000 ) ) ;
#318 =( GEOMETRIC_REPRESENTATION_CONTEXT ( 3 ) GLOBAL_UNCERTAINTY_ASSIGNED_CONTEXT ( ( #708 ) ) GLOBAL_UNIT_ASSIGNED_CONTEXT ( ( #827, #688, #62 ) ) REPRESENTATION_CONTEXT ( 'NONE', 'WORKASPACE' ) );
#319 = ORIENTED_EDGE ( 'NONE', *, *, #120, .F. ) ;
#320 = DIRECTION ( 'NONE',  ( 0.000000000000000000, 1.000000000000000000, 0.000000000000000000 ) ) ;
#321 = CARTESIAN_POINT ( 'NONE',  ( -4.000000000000000000, 0.000000000000000000, 7.000000000000000000 ) ) ;
#322 = ADVANCED_FACE ( 'NONE', ( #590 ), #367, .T. ) ;
#323 = CONICAL_SURFACE ( 'NONE', #780, 1.499999999999999556, 0.7853981633974482790 ) ;
#324 = VERTEX_POINT ( 'NONE', #641 ) ;
#325 = DIRECTION ( 'NONE',  ( 0.000000000000000000, 0.000000000000000000, 1.000000000000000000 ) ) ;
#326 = DIRECTION ( 'NONE',  ( 0.000000000000000000, 0.000000000000000000, -1.000000000000000000 ) ) ;
#327 = LINE ( 'NONE', #332, #59 ) ;
#328 = VECTOR ( 'NONE', #843, 1000.000000000000000 ) ;
#329 = EDGE_CURVE ( 'NONE', #364, #188, #873, .T. ) ;
#330 = ORIENTED_EDGE ( 'NONE', *, *, #208, .F. ) ;
#331 = CARTESIAN_POINT ( 'NONE',  ( 4.000000000000000000, 3.000000000000000000, -5.000000000000000000 ) ) ;
#332 = CARTESIAN_POINT ( 'NONE',  ( 4.000000000000000000, 3.000000000000000000, 7.000000000000000000 ) ) ;
#333 = AXIS2_PLACEMENT_3D ( 'NONE', #630, #475, #544 ) ;
#334 = ORIENTED_EDGE ( 'NONE', *, *, #665, .F. ) ;
#335 = CARTESIAN_POINT ( 'NONE',  ( 4.000000000000000000, 3.000000000000000000, -7.000000000000000000 ) ) ;
#336 = FACE_OUTER_BOUND ( 'NONE', #811, .T. ) ;
#337 = DIRECTION ( 'NONE',  ( 0.000000000000000000, 1.000000000000000000, 0.000000000000000000 ) ) ;
#338 = ORIENTED_EDGE ( 'NONE', *, *, #836, .F. ) ;
#339 = CARTESIAN_POINT ( 'NONE',  ( 0.000000000000000000, 0.000000000000000000, -5.200000000000000178 ) ) ;
#340 = AXIS2_PLACEMENT_3D ( 'NONE', #732, #882, #605 ) ;
#341 = EDGE_CURVE ( 'NONE', #672, #52, #865, .T. ) ;
#342 = LINE ( 'NONE', #141, #99 ) ;
#343 = ADVANCED_FACE ( 'NONE', ( #859 ), #373, .F. ) ;
#344 = CARTESIAN_POINT ( 'NONE',  ( 0.000000000000000000, 0.000000000000000000, 2.800000000000000266 ) ) ;
#345 = VECTOR ( 'NONE', #502, 1000.000000000000000 ) ;
#346 = AXIS2_PLACEMENT_3D ( 'NONE', #450, #261, #466 ) ;
#347 = ORIENTED_EDGE ( 'NONE', *, *, #443, .T. ) ;
#348 = DIRECTION ( 'NONE',  ( -0.000000000000000000, -0.000000000000000000, -1.000000000000000000 ) ) ;
#349 = LINE ( 'NONE', #829, #624 ) ;
#350 = VERTEX_POINT ( 'NONE', #521 ) ;
#351 = DIRECTION ( 'NONE',  ( 0.000000000000000000, 0.000000000000000000, 1.000000000000000000 ) ) ;
#352 = EDGE_CURVE ( 'NONE', #46, #52, #506, .T. ) ;
#353 = ORIENTED_EDGE ( 'NONE', *, *, #329, .T. ) ;
#354 = DIRECTION ( 'NONE',  ( -0.000000000000000000, 1.000000000000000000, -0.000000000000000000 ) ) ;
#355 = CIRCLE ( 'NONE', #726, 1.199999999999999734 ) ;
#356 = DIRECTION ( 'NONE',  ( 0.000000000000000000, 0.000000000000000000, 1.000000000000000000 ) ) ;
#357 = DIRECTION ( 'NONE',  ( -0.000000000000000000, -1.000000000000000000, -0.000000000000000000 ) ) ;
#358 = CIRCLE ( 'NONE', #878, 2.100000000000000089 ) ;
#359 = DIRECTION ( 'NONE',  ( 0.000000000000000000, 1.000000000000000000, 0.000000000000000000 ) ) ;
#360 = CYLINDRICAL_SURFACE ( 'NONE', #116, 1.199999999999999734 ) ;
#361 = ORIENTED_EDGE ( 'NONE', *, *, #545, .T. ) ;
#362 = DIRECTION ( 'NONE',  ( 0.000000000000000000, 1.000000000000000000, 0.000000000000000000 ) ) ;
#363 = DIRECTION ( 'NONE',  ( 0.000000000000000000, 0.000000000000000000, 1.000000000000000000 ) ) ;
#364 = VERTEX_POINT ( 'NONE', #159 ) ;
#365 = FACE_BOUND ( 'NONE', #19, .T. ) ;
#366 = EDGE_CURVE ( 'NONE', #862, #528, #33, .T. ) ;
#367 = PLANE ( 'NONE',  #566 ) ;
#368 = AXIS2_PLACEMENT_3D ( 'NONE', #468, #747, #47 ) ;
#369 = DIRECTION ( 'NONE',  ( 0.000000000000000000, 1.000000000000000000, 0.000000000000000000 ) ) ;
#370 = ORIENTED_EDGE ( 'NONE', *, *, #93, .F. ) ;
#371 = DIRECTION ( 'NONE',  ( 0.000000000000000000, 1.000000000000000000, 0.000000000000000000 ) ) ;
#372 = CIRCLE ( 'NONE', #45, 1.499999999999999556 ) ;
#373 = CYLINDRICAL_SURFACE ( 'NONE', #103, 1.499999999999999556 ) ;
#374 = COLOUR_RGB ( '',0.7921568627450980005, 0.8196078431372548767, 0.9333333333333333481 ) ;
#375 = FACE_OUTER_BOUND ( 'NONE', #459, .T. ) ;
#376 = ORIENTED_EDGE ( 'NONE', *, *, #8, .T. ) ;
#377 = DIRECTION ( 'NONE',  ( 0.000000000000000000, 0.000000000000000000, -1.000000000000000000 ) ) ;
#378 = DIRECTION ( 'NONE',  ( 0.000000000000000000, 0.000000000000000000, 1.000000000000000000 ) ) ;
#379 = EDGE_CURVE ( 'NONE', #77, #350, #108, .T. ) ;
#380 = ORIENTED_EDGE ( 'NONE', *, *, #638, .F. ) ;
#381 = DIRECTION ( 'NONE',  ( 0.000000000000000000, -1.000000000000000000, 0.000000000000000000 ) ) ;
#382 = DIRECTION ( 'NONE',  ( 0.000000000000000000, 1.000000000000000000, 0.000000000000000000 ) ) ;
#383 = ORIENTED_EDGE ( 'NONE', *, *, #748, .T. ) ;
#384 = DIRECTION ( 'NONE',  ( 0.000000000000000000, 1.000000000000000000, 0.000000000000000000 ) ) ;
#385 = EDGE_CURVE ( 'NONE', #645, #805, #773, .T. ) ;
#386 = CARTESIAN_POINT ( 'NONE',  ( -4.000000000000000000, 0.000000000000000000, 5.000000000000000000 ) ) ;
#387 = VERTEX_POINT ( 'NONE', #722 ) ;
#388 = DIRECTION ( 'NONE',  ( -0.000000000000000000, 1.000000000000000000, -0.000000000000000000 ) ) ;
#389 = EDGE_CURVE ( 'NONE', #483, #77, #372, .T. ) ;
#390 = CARTESIAN_POINT ( 'NONE',  ( 1.469576158976823553E-16, 3.000000000000000000, 5.200000000000000178 ) ) ;
#391 =( LENGTH_UNIT ( ) NAMED_UNIT ( * ) SI_UNIT ( .MILLI., .METRE. ) );
#392 = EDGE_LOOP ( 'NONE', ( #179, #296, #376, #380, #262, #503, #642, #871, #770, #446 ) ) ;
#393 = CARTESIAN_POINT ( 'NONE',  ( 0.000000000000000000, 0.000000000000000000, -4.000000000000000000 ) ) ;
#394 = CARTESIAN_POINT ( 'NONE',  ( 6.000000000000000000, 3.000000000000000000, 5.000000000000000000 ) ) ;
#395 = CARTESIAN_POINT ( 'NONE',  ( -6.000000000000000000, 8.399999999999996803, -1.499999999999999556 ) ) ;
#396 = EDGE_CURVE ( 'NONE', #117, #195, #820, .T. ) ;
#397 = CIRCLE ( 'NONE', #295, 1.499999999999999556 ) ;
#398 = ORIENTED_EDGE ( 'NONE', *, *, #379, .F. ) ;
#399 = DIRECTION ( 'NONE',  ( 0.000000000000000000, 1.000000000000000000, 0.000000000000000000 ) ) ;
#400 = CARTESIAN_POINT ( 'NONE',  ( -5.686725042113509154, 3.000000000000000000, -6.074690016845404550 ) ) ;
#401 = DIRECTION ( 'NONE',  ( 0.000000000000000000, 0.000000000000000000, 1.000000000000000000 ) ) ;
#402 = VECTOR ( 'NONE', #841, 1000.000000000000000 ) ;
#403 = VECTOR ( 'NONE', #603, 1000.000000000000000 ) ;
#404 = ORIENTED_EDGE ( 'NONE', *, *, #837, .T. ) ;
#405 = CYLINDRICAL_SURFACE ( 'NONE', #425, 1.199999999999999734 ) ;
#406 = APPLICATION_CONTEXT ( 'automotive_design' ) ;
#407 = CYLINDRICAL_SURFACE ( 'NONE', #298, 2.000000000000000000 ) ;
#408 = CARTESIAN_POINT ( 'NONE',  ( 0.000000000000000000, 3.000000000000000000, -4.000000000000000000 ) ) ;
#409 = EDGE_CURVE ( 'NONE', #122, #192, #312, .T. ) ;
#410 = ORIENTED_EDGE ( 'NONE', *, *, #737, .T. ) ;
#411 = ADVANCED_FACE ( 'NONE', ( #193 ), #598, .F. ) ;
#412 = CARTESIAN_POINT ( 'NONE',  ( 0.000000000000000000, 3.000000000000000000, -1.899999999999999689 ) ) ;
#413 = EDGE_LOOP ( 'NONE', ( #471, #742, #536, #821 ) ) ;
#414 = SHAPE_DEFINITION_REPRESENTATION ( #670, #507 ) ;
#415 = VECTOR ( 'NONE', #875, 999.9999999999998863 ) ;
#416 = CYLINDRICAL_SURFACE ( 'NONE', #676, 2.100000000000000089 ) ;
#417 = CARTESIAN_POINT ( 'NONE',  ( 1.469576158976823799E-16, 2.000000000000000000, 5.200000000000000178 ) ) ;
#418 = AXIS2_PLACEMENT_3D ( 'NONE', #230, #444, #378 ) ;
#419 = AXIS2_PLACEMENT_3D ( 'NONE', #423, #623, #844 ) ;
#420 = ORIENTED_EDGE ( 'NONE', *, *, #248, .F. ) ;
#421 = DIRECTION ( 'NONE',  ( 0.000000000000000000, 1.000000000000000000, 0.000000000000000000 ) ) ;
#422 = EDGE_CURVE ( 'NONE', #46, #122, #213, .T. ) ;
#423 = CARTESIAN_POINT ( 'NONE',  ( -6.000000000000000000, 8.399999999999996803, 0.000000000000000000 ) ) ;
#424 = VERTEX_POINT ( 'NONE', #526 ) ;
#425 = AXIS2_PLACEMENT_3D ( 'NONE', #683, #66, #541 ) ;
#426 = EDGE_LOOP ( 'NONE', ( #160, #334 ) ) ;
#427 = LINE ( 'NONE', #634, #813 ) ;
#428 = CARTESIAN_POINT ( 'NONE',  ( -6.000000000000000000, 8.399999999999996803, 1.499999999999999556 ) ) ;
#429 = EDGE_CURVE ( 'NONE', #324, #672, #807, .T. ) ;
#430 = ORIENTED_EDGE ( 'NONE', *, *, #778, .T. ) ;
#431 = ORIENTED_EDGE ( 'NONE', *, *, #206, .F. ) ;
#432 = CARTESIAN_POINT ( 'NONE',  ( -8.530087563170265952, 0.000000000000000000, -1.612035025268107713 ) ) ;
#433 = CARTESIAN_POINT ( 'NONE',  ( -8.530087563170265952, -5.291502622129180544, 1.612035025268107935 ) ) ;
#434 = UNCERTAINTY_MEASURE_WITH_UNIT (LENGTH_MEASURE( 1.000000000000000082E-05 ), #391, 'distance_accuracy_value', 'NONE');
#435 = EDGE_LOOP ( 'NONE', ( #217, #347, #891, #292 ) ) ;
#436 = AXIS2_PLACEMENT_3D ( 'NONE', #761, #73, #495 ) ;
#437 = CARTESIAN_POINT ( 'NONE',  ( -4.000000000000000000, 3.000000000000000000, 5.000000000000000000 ) ) ;
#438 = DIRECTION ( 'NONE',  ( 0.000000000000000000, 0.000000000000000000, 1.000000000000000000 ) ) ;
#439 = EDGE_LOOP ( 'NONE', ( #156, #456 ) ) ;
#440 = EDGE_CURVE ( 'NONE', #561, #554, #177, .T. ) ;
#441 = ORIENTED_EDGE ( 'NONE', *, *, #409, .T. ) ;
#442 = CARTESIAN_POINT ( 'NONE',  ( -8.530087563170265952, 0.000000000000000000, -1.612035025268107713 ) ) ;
#443 = EDGE_CURVE ( 'NONE', #576, #276, #771, .T. ) ;
#444 = DIRECTION ( 'NONE',  ( -0.000000000000000000, -1.000000000000000000, -0.000000000000000000 ) ) ;
#445 = CYLINDRICAL_SURFACE ( 'NONE', #567, 2.100000000000000089 ) ;
#446 = ORIENTED_EDGE ( 'NONE', *, *, #612, .T. ) ;
#447 = CARTESIAN_POINT ( 'NONE',  ( -8.530087563170265952, 3.000000000000000000, 1.612035025268107935 ) ) ;
#448 = LINE ( 'NONE', #32, #145 ) ;
#449 = AXIS2_PLACEMENT_3D ( 'NONE', #490, #146, #550 ) ;
#450 = CARTESIAN_POINT ( 'NONE',  ( 0.000000000000000000, 3.000000000000000000, 0.000000000000000000 ) ) ;
#451 = ORIENTED_EDGE ( 'NONE', *, *, #836, .T. ) ;
#452 = PLANE ( 'NONE',  #340 ) ;
#453 = AXIS2_PLACEMENT_3D ( 'NONE', #759, #627, #211 ) ;
#454 = DIRECTION ( 'NONE',  ( -0.8433625210567552433, 0.000000000000000000, 0.5373450084227023860 ) ) ;
#455 = EDGE_CURVE ( 'NONE', #799, #95, #694, .T. ) ;
#456 = ORIENTED_EDGE ( 'NONE', *, *, #586, .T. ) ;
#457 = FACE_OUTER_BOUND ( 'NONE', #731, .T. ) ;
#458 = CARTESIAN_POINT ( 'NONE',  ( -6.000000000000000000, -8.485281374238574870, -3.000000000000001332 ) ) ;
#459 = EDGE_LOOP ( 'NONE', ( #703, #15 ) ) ;
#460 = DIRECTION ( 'NONE',  ( 0.000000000000000000, 0.000000000000000000, 1.000000000000000000 ) ) ;
#461 = VECTOR ( 'NONE', #833, 1000.000000000000000 ) ;
#462 = EDGE_LOOP ( 'NONE', ( #1, #36 ) ) ;
#463 = CYLINDRICAL_SURFACE ( 'NONE', #876, 2.000000000000000000 ) ;
#464 = AXIS2_PLACEMENT_3D ( 'NONE', #716, #649, #363 ) ;
#465 = CIRCLE ( 'NONE', #774, 2.100000000000000089 ) ;
#466 = DIRECTION ( 'NONE',  ( 0.000000000000000000, -0.000000000000000000, 1.000000000000000000 ) ) ;
#467 = EDGE_LOOP ( 'NONE', ( #43, #571 ) ) ;
#468 = CARTESIAN_POINT ( 'NONE',  ( 0.000000000000000000, 0.000000000000000000, -4.000000000000000000 ) ) ;
#469 = EDGE_CURVE ( 'NONE', #117, #531, #712, .T. ) ;
#470 = DIRECTION ( 'NONE',  ( 0.000000000000000000, -0.000000000000000000, 1.000000000000000000 ) ) ;
#471 = ORIENTED_EDGE ( 'NONE', *, *, #586, .F. ) ;
#472 = DIRECTION ( 'NONE',  ( 0.000000000000000000, -0.000000000000000000, 1.000000000000000000 ) ) ;
#473 = AXIS2_PLACEMENT_3D ( 'NONE', #485, #421, #264 ) ;
#474 = ORIENTED_EDGE ( 'NONE', *, *, #173, .T. ) ;
#475 = DIRECTION ( 'NONE',  ( 0.000000000000000000, 1.000000000000000000, 0.000000000000000000 ) ) ;
#476 = LINE ( 'NONE', #618, #666 ) ;
#477 = CARTESIAN_POINT ( 'NONE',  ( 1.469576158976823799E-16, 0.000000000000000000, -2.800000000000000266 ) ) ;
#478 = AXIS2_PLACEMENT_3D ( 'NONE', #69, #631, #5 ) ;
#479 = EDGE_CURVE ( 'NONE', #672, #799, #828, .T. ) ;
#480 = ORIENTED_EDGE ( 'NONE', *, *, #119, .T. ) ;
#481 = CARTESIAN_POINT ( 'NONE',  ( 0.000000000000000000, 2.000000000000000000, -5.200000000000000178 ) ) ;
#482 = LINE ( 'NONE', #428, #867 ) ;
#483 = VERTEX_POINT ( 'NONE', #684 ) ;
#484 = CARTESIAN_POINT ( 'NONE',  ( 2.571758278209441957E-16, 2.000000000000000000, -6.100000000000000533 ) ) ;
#485 = CARTESIAN_POINT ( 'NONE',  ( 0.000000000000000000, 2.000000000000000000, -4.000000000000000000 ) ) ;
#486 = CYLINDRICAL_SURFACE ( 'NONE', #478, 3.000000000000001332 ) ;
#487 = EDGE_LOOP ( 'NONE', ( #691, #856 ) ) ;
#488 = VECTOR ( 'NONE', #388, 1000.000000000000000 ) ;
#489 = EDGE_CURVE ( 'NONE', #500, #857, #476, .T. ) ;
#490 = CARTESIAN_POINT ( 'NONE',  ( 0.000000000000000000, 2.000000000000000000, 4.000000000000000000 ) ) ;
#491 = DIRECTION ( 'NONE',  ( 0.000000000000000000, 0.000000000000000000, -1.000000000000000000 ) ) ;
#492 = VECTOR ( 'NONE', #555, 1000.000000000000000 ) ;
#493 = EDGE_LOOP ( 'NONE', ( #625, #776, #781, #817 ) ) ;
#494 = EDGE_LOOP ( 'NONE', ( #227, #132, #653, #620, #30, #842, #226, #789, #65, #9, #474, #303 ) ) ;
#495 = DIRECTION ( 'NONE',  ( 0.000000000000000000, 0.000000000000000000, 1.000000000000000000 ) ) ;
#496 = ADVANCED_FACE ( 'NONE', ( #336 ), #564, .F. ) ;
#497 = CARTESIAN_POINT ( 'NONE',  ( -4.000000000000000000, 3.000000000000000000, -5.000000000000000000 ) ) ;
#498 = ORIENTED_EDGE ( 'NONE', *, *, #8, .F. ) ;
#499 = AXIS2_PLACEMENT_3D ( 'NONE', #699, #692, #71 ) ;
#500 = VERTEX_POINT ( 'NONE', #481 ) ;
#501 = FACE_OUTER_BOUND ( 'NONE', #435, .T. ) ;
#502 = DIRECTION ( 'NONE',  ( -0.000000000000000000, 1.000000000000000000, -0.000000000000000000 ) ) ;
#503 = ORIENTED_EDGE ( 'NONE', *, *, #479, .F. ) ;
#504 = ORIENTED_EDGE ( 'NONE', *, *, #900, .T. ) ;
#505 = CARTESIAN_POINT ( 'NONE',  ( -6.000000000000000000, 0.000000000000000000, -7.000000000000000000 ) ) ;
#506 = LINE ( 'NONE', #802, #609 ) ;
#507 = ADVANCED_BREP_SHAPE_REPRESENTATION ( 'glider base_4_CNC', ( #55, #499 ), #318 ) ;
#508 = EDGE_CURVE ( 'NONE', #140, #554, #229, .T. ) ;
#509 = ADVANCED_FACE ( 'NONE', ( #777 ), #407, .T. ) ;
#510 = ORIENTED_EDGE ( 'NONE', *, *, #130, .F. ) ;
#511 = VERTEX_POINT ( 'NONE', #400 ) ;
#512 = CARTESIAN_POINT ( 'NONE',  ( -6.000000000000000000, 2.999999999999999112, -3.000000000000001332 ) ) ;
#513 = DIRECTION ( 'NONE',  ( 0.000000000000000000, 1.000000000000000000, 0.000000000000000000 ) ) ;
#514 = FACE_OUTER_BOUND ( 'NONE', #493, .T. ) ;
#515 = CARTESIAN_POINT ( 'NONE',  ( 6.000000000000000000, 0.000000000000000000, 5.000000000000000000 ) ) ;
#516 = DIRECTION ( 'NONE',  ( -0.000000000000000000, 1.000000000000000000, -0.000000000000000000 ) ) ;
#517 = LINE ( 'NONE', #798, #403 ) ;
#518 = ORIENTED_EDGE ( 'NONE', *, *, #389, .T. ) ;
#519 = DIRECTION ( 'NONE',  ( 0.000000000000000000, 0.000000000000000000, 1.000000000000000000 ) ) ;
#520 = ADVANCED_FACE ( 'NONE', ( #134 ), #416, .F. ) ;
#521 = CARTESIAN_POINT ( 'NONE',  ( -6.000000000000000000, 9.000000000000001776, -2.100000000000004530 ) ) ;
#522 = CIRCLE ( 'NONE', #449, 1.199999999999999734 ) ;
#523 = ORIENTED_EDGE ( 'NONE', *, *, #766, .F. ) ;
#524 = DIRECTION ( 'NONE',  ( 0.000000000000000000, 0.000000000000000000, 1.000000000000000000 ) ) ;
#525 = CIRCLE ( 'NONE', #636, 3.000000000000001332 ) ;
#526 = CARTESIAN_POINT ( 'NONE',  ( 0.000000000000000000, 2.000000000000000000, 6.100000000000000533 ) ) ;
#527 = EDGE_CURVE ( 'NONE', #95, #288, #888, .T. ) ;
#528 = VERTEX_POINT ( 'NONE', #614 ) ;
#529 = CARTESIAN_POINT ( 'NONE',  ( -4.000000000000000000, 3.000000000000000000, -7.000000000000000000 ) ) ;
#530 = AXIS2_PLACEMENT_3D ( 'NONE', #393, #673, #325 ) ;
#531 = VERTEX_POINT ( 'NONE', #901 ) ;
#532 = FACE_OUTER_BOUND ( 'NONE', #392, .T. ) ;
#533 = AXIS2_PLACEMENT_3D ( 'NONE', #152, #647, #519 ) ;
#534 = EDGE_CURVE ( 'NONE', #861, #246, #342, .T. ) ;
#535 = EDGE_CURVE ( 'NONE', #531, #117, #522, .T. ) ;
#536 = ORIENTED_EDGE ( 'NONE', *, *, #665, .T. ) ;
#537 = FACE_OUTER_BOUND ( 'NONE', #267, .T. ) ;
#538 = AXIS2_PLACEMENT_3D ( 'NONE', #35, #369, #470 ) ;
#539 = DIRECTION ( 'NONE',  ( 0.000000000000000000, 1.000000000000000000, 0.000000000000000000 ) ) ;
#540 = VERTEX_POINT ( 'NONE', #897 ) ;
#541 = DIRECTION ( 'NONE',  ( 0.000000000000000000, 0.000000000000000000, -1.000000000000000000 ) ) ;
#542 = DIRECTION ( 'NONE',  ( 0.000000000000000000, 1.000000000000000000, 0.000000000000000000 ) ) ;
#543 = ORIENTED_EDGE ( 'NONE', *, *, #650, .F. ) ;
#544 = DIRECTION ( 'NONE',  ( 0.000000000000000000, 0.000000000000000000, 1.000000000000000000 ) ) ;
#545 = EDGE_CURVE ( 'NONE', #364, #500, #29, .T. ) ;
#546 = CARTESIAN_POINT ( 'NONE',  ( -6.000000000000000000, 3.000000000000000000, 7.000000000000000000 ) ) ;
#547 = DIRECTION ( 'NONE',  ( -0.000000000000000000, -1.000000000000000000, -0.000000000000000000 ) ) ;
#548 = EDGE_LOOP ( 'NONE', ( #702, #441, #136, #148 ) ) ;
#549 = CARTESIAN_POINT ( 'NONE',  ( 4.000000000000000000, 0.000000000000000000, -7.000000000000000000 ) ) ;
#550 = DIRECTION ( 'NONE',  ( 0.000000000000000000, 0.000000000000000000, 1.000000000000000000 ) ) ;
#551 = DIRECTION ( 'NONE',  ( 0.000000000000000000, 0.000000000000000000, 1.000000000000000000 ) ) ;
#552 = EDGE_CURVE ( 'NONE', #6, #629, #700, .T. ) ;
#553 = AXIS2_PLACEMENT_3D ( 'NONE', #386, #659, #42 ) ;
#554 = VERTEX_POINT ( 'NONE', #201 ) ;
#555 = DIRECTION ( 'NONE',  ( 0.000000000000000000, 1.000000000000000000, 0.000000000000000000 ) ) ;
#556 = FACE_OUTER_BOUND ( 'NONE', #604, .T. ) ;
#557 = EDGE_CURVE ( 'NONE', #195, #96, #68, .T. ) ;
#558 = ORIENTED_EDGE ( 'NONE', *, *, #311, .F. ) ;
#559 = DIRECTION ( 'NONE',  ( 0.000000000000000000, 0.000000000000000000, 1.000000000000000000 ) ) ;
#560 = CARTESIAN_POINT ( 'NONE',  ( 0.000000000000000000, 3.000000000000000000, 4.000000000000000000 ) ) ;
#561 = VERTEX_POINT ( 'NONE', #512 ) ;
#562 = AXIS2_PLACEMENT_3D ( 'NONE', #710, #86, #640 ) ;
#563 = ADVANCED_FACE ( 'NONE', ( #365, #293, #81 ), #101, .T. ) ;
#564 = CYLINDRICAL_SURFACE ( 'NONE', #72, 1.499999999999999556 ) ;
#565 = CARTESIAN_POINT ( 'NONE',  ( -6.000000000000000000, 9.000000000000001776, 0.000000000000000000 ) ) ;
#566 = AXIS2_PLACEMENT_3D ( 'NONE', #433, #454, #797 ) ;
#567 = AXIS2_PLACEMENT_3D ( 'NONE', #317, #723, #237 ) ;
#568 = CARTESIAN_POINT ( 'NONE',  ( -4.000000000000000000, 0.000000000000000000, -5.000000000000000000 ) ) ;
#569 = DIRECTION ( 'NONE',  ( 0.000000000000000000, 0.000000000000000000, 1.000000000000000000 ) ) ;
#570 = CARTESIAN_POINT ( 'NONE',  ( 4.000000000000000000, 3.000000000000000000, -7.000000000000000000 ) ) ;
#571 = ORIENTED_EDGE ( 'NONE', *, *, #366, .T. ) ;
#572 = CIRCLE ( 'NONE', #750, 2.100000000000004530 ) ;
#573 = CARTESIAN_POINT ( 'NONE',  ( -8.530087563170265952, 0.000000000000000000, 1.612035025268107935 ) ) ;
#574 = ADVANCED_FACE ( 'NONE', ( #715 ), #863, .T. ) ;
#575 = DIRECTION ( 'NONE',  ( 0.000000000000000000, -1.000000000000000000, 0.000000000000000000 ) ) ;
#576 = VERTEX_POINT ( 'NONE', #442 ) ;
#577 = ORIENTED_EDGE ( 'NONE', *, *, #534, .F. ) ;
#578 = CARTESIAN_POINT ( 'NONE',  ( 0.000000000000000000, 3.000000000000000000, 0.000000000000000000 ) ) ;
#579 = AXIS2_PLACEMENT_3D ( 'NONE', #654, #92, #228 ) ;
#580 = CYLINDRICAL_SURFACE ( 'NONE', #88, 2.100000000000000089 ) ;
#581 = CARTESIAN_POINT ( 'NONE',  ( -4.000000000000000000, 3.000000000000000000, 7.000000000000000000 ) ) ;
#582 = AXIS2_PLACEMENT_3D ( 'NONE', #63, #204, #3 ) ;
#583 = VECTOR ( 'NONE', #337, 1000.000000000000000 ) ;
#584 = CARTESIAN_POINT ( 'NONE',  ( 0.000000000000000000, 3.000000000000000000, 6.100000000000000533 ) ) ;
#585 = PLANE ( 'NONE',  #681 ) ;
#586 = EDGE_CURVE ( 'NONE', #861, #424, #181, .T. ) ;
#587 = CARTESIAN_POINT ( 'NONE',  ( 0.000000000000000000, 2.000000000000000000, -4.000000000000000000 ) ) ;
#588 = ORIENTED_EDGE ( 'NONE', *, *, #748, .F. ) ;
#589 = DIRECTION ( 'NONE',  ( 0.5373450084227024970, 0.000000000000000000, -0.8433625210567552433 ) ) ;
#590 = FACE_OUTER_BOUND ( 'NONE', #548, .T. ) ;
#591 = EDGE_LOOP ( 'NONE', ( #782, #271 ) ) ;
#592 = LINE ( 'NONE', #529, #83 ) ;
#593 = EDGE_CURVE ( 'NONE', #424, #660, #795, .T. ) ;
#594 = VECTOR ( 'NONE', #176, 1000.000000000000000 ) ;
#595 = ORIENTED_EDGE ( 'NONE', *, *, #593, .T. ) ;
#596 = FACE_BOUND ( 'NONE', #283, .T. ) ;
#597 = CIRCLE ( 'NONE', #418, 3.000000000000001332 ) ;
#598 = PLANE ( 'NONE',  #17 ) ;
#599 = ORIENTED_EDGE ( 'NONE', *, *, #508, .T. ) ;
#600 = DIRECTION ( 'NONE',  ( -0.000000000000000000, 1.000000000000000000, -0.000000000000000000 ) ) ;
#601 = EDGE_CURVE ( 'NONE', #698, #645, #427, .T. ) ;
#602 = CIRCLE ( 'NONE', #333, 3.000000000000001332 ) ;
#603 = DIRECTION ( 'NONE',  ( -0.000000000000000000, -0.000000000000000000, -1.000000000000000000 ) ) ;
#604 = EDGE_LOOP ( 'NONE', ( #657, #48, #809, #221 ) ) ;
#605 = DIRECTION ( 'NONE',  ( 0.000000000000000000, -0.000000000000000000, 1.000000000000000000 ) ) ;
#606 = CARTESIAN_POINT ( 'NONE',  ( 4.000000000000000000, 0.000000000000000000, 7.000000000000000000 ) ) ;
#607 = EDGE_LOOP ( 'NONE', ( #577, #874, #595, #709 ) ) ;
#608 = CARTESIAN_POINT ( 'NONE',  ( 2.571758278209441957E-16, 2.000000000000000000, -6.100000000000000533 ) ) ;
#609 = VECTOR ( 'NONE', #787, 1000.000000000000000 ) ;
#610 = STYLED_ITEM ( 'NONE', ( #129 ), #55 ) ;
#611 = DIRECTION ( 'NONE',  ( -0.000000000000000000, 1.000000000000000000, -0.000000000000000000 ) ) ;
#612 = EDGE_CURVE ( 'NONE', #122, #698, #872, .T. ) ;
#613 = EDGE_LOOP ( 'NONE', ( #280, #383, #719, #504 ) ) ;
#614 = CARTESIAN_POINT ( 'NONE',  ( 0.000000000000000000, 2.000000000000000000, -1.899999999999999689 ) ) ;
#615 = FACE_OUTER_BOUND ( 'NONE', #788, .T. ) ;
#616 = AXIS2_PLACEMENT_3D ( 'NONE', #189, #320, #524 ) ;
#617 = VERTEX_POINT ( 'NONE', #720 ) ;
#618 = CARTESIAN_POINT ( 'NONE',  ( 0.000000000000000000, 3.000000000000000000, -5.200000000000000178 ) ) ;
#619 = CARTESIAN_POINT ( 'NONE',  ( 1.469576158976823799E-16, 0.000000000000000000, 5.200000000000000178 ) ) ;
#620 = ORIENTED_EDGE ( 'NONE', *, *, #385, .F. ) ;
#621 = CARTESIAN_POINT ( 'NONE',  ( 2.571758278209441957E-16, 2.000000000000000000, 1.899999999999999689 ) ) ;
#622 = CARTESIAN_POINT ( 'NONE',  ( -6.000000000000000000, -1.242640687119284770, 0.000000000000000000 ) ) ;
#623 = DIRECTION ( 'NONE',  ( 0.000000000000000000, 1.000000000000000000, 0.000000000000000000 ) ) ;
#624 = VECTOR ( 'NONE', #768, 1000.000000000000000 ) ;
#625 = ORIENTED_EDGE ( 'NONE', *, *, #366, .F. ) ;
#626 = DIRECTION ( 'NONE',  ( 0.000000000000000000, -1.000000000000000000, 0.000000000000000000 ) ) ;
#627 = DIRECTION ( 'NONE',  ( 0.000000000000000000, 1.000000000000000000, 0.000000000000000000 ) ) ;
#628 = EDGE_CURVE ( 'NONE', #96, #195, #210, .T. ) ;
#629 = VERTEX_POINT ( 'NONE', #725 ) ;
#630 = CARTESIAN_POINT ( 'NONE',  ( -6.000000000000000000, 2.999999999999999112, 0.000000000000000000 ) ) ;
#631 = DIRECTION ( 'NONE',  ( 0.000000000000000000, 1.000000000000000000, 0.000000000000000000 ) ) ;
#632 = CARTESIAN_POINT ( 'NONE',  ( -6.000000000000000000, 2.999999999999999112, 0.000000000000000000 ) ) ;
#633 = VECTOR ( 'NONE', #161, 1000.000000000000114 ) ;
#634 = CARTESIAN_POINT ( 'NONE',  ( -8.530087563170265952, -5.291502622129180544, 1.612035025268107935 ) ) ;
#635 = CYLINDRICAL_SURFACE ( 'NONE', #174, 2.000000000000000000 ) ;
#636 = AXIS2_PLACEMENT_3D ( 'NONE', #565, #685, #7 ) ;
#637 = ORIENTED_EDGE ( 'NONE', *, *, #79, .F. ) ;
#638 = EDGE_CURVE ( 'NONE', #886, #387, #31, .T. ) ;
#639 = ORIENTED_EDGE ( 'NONE', *, *, #628, .F. ) ;
#640 = DIRECTION ( 'NONE',  ( -0.5373450084227024970, 0.000000000000000000, 0.8433625210567552433 ) ) ;
#641 = CARTESIAN_POINT ( 'NONE',  ( 6.000000000000000000, 3.000000000000000000, 5.000000000000000000 ) ) ;
#642 = ORIENTED_EDGE ( 'NONE', *, *, #341, .T. ) ;
#643 = CARTESIAN_POINT ( 'NONE',  ( 0.000000000000000000, 2.000000000000000000, 6.100000000000000533 ) ) ;
#644 = DIRECTION ( 'NONE',  ( 8.659560562354932858E-17, 0.7071067811865474617, -0.7071067811865474617 ) ) ;
#645 = VERTEX_POINT ( 'NONE', #447 ) ;
#646 = ORIENTED_EDGE ( 'NONE', *, *, #93, .T. ) ;
#647 = DIRECTION ( 'NONE',  ( 0.000000000000000000, 1.000000000000000000, 0.000000000000000000 ) ) ;
#648 = AXIS2_PLACEMENT_3D ( 'NONE', #743, #460, #664 ) ;
#649 = DIRECTION ( 'NONE',  ( 0.000000000000000000, 1.000000000000000000, 0.000000000000000000 ) ) ;
#650 = EDGE_CURVE ( 'NONE', #192, #6, #845, .T. ) ;
#651 = CARTESIAN_POINT ( 'NONE',  ( 0.000000000000000000, 3.000000000000000000, -4.000000000000000000 ) ) ;
#652 = VECTOR ( 'NONE', #172, 1000.000000000000000 ) ;
#653 = ORIENTED_EDGE ( 'NONE', *, *, #854, .F. ) ;
#654 = CARTESIAN_POINT ( 'NONE',  ( 0.000000000000000000, 0.000000000000000000, 4.000000000000000000 ) ) ;
#655 = DIRECTION ( 'NONE',  ( 0.000000000000000000, 1.000000000000000000, 0.000000000000000000 ) ) ;
#656 = FACE_OUTER_BOUND ( 'NONE', #309, .T. ) ;
#657 = ORIENTED_EDGE ( 'NONE', *, *, #396, .F. ) ;
#658 = PLANE ( 'NONE',  #648 ) ;
#659 = DIRECTION ( 'NONE',  ( -0.000000000000000000, -1.000000000000000000, -0.000000000000000000 ) ) ;
#660 = VERTEX_POINT ( 'NONE', #584 ) ;
#661 = CARTESIAN_POINT ( 'NONE',  ( -6.000000000000000000, 3.000000000000000000, 0.000000000000000000 ) ) ;
#662 = DIRECTION ( 'NONE',  ( 0.000000000000000000, 1.000000000000000000, 0.000000000000000000 ) ) ;
#663 = ORIENTED_EDGE ( 'NONE', *, *, #379, .T. ) ;
#664 = DIRECTION ( 'NONE',  ( 1.000000000000000000, 0.000000000000000000, -0.000000000000000000 ) ) ;
#665 = EDGE_CURVE ( 'NONE', #246, #660, #830, .T. ) ;
#666 = VECTOR ( 'NONE', #680, 1000.000000000000000 ) ;
#667 = EDGE_CURVE ( 'NONE', #540, #852, #397, .T. ) ;
#668 = EDGE_LOOP ( 'NONE', ( #207, #243 ) ) ;
#669 = DIRECTION ( 'NONE',  ( 0.000000000000000000, 1.000000000000000000, 0.000000000000000000 ) ) ;
#670 = PRODUCT_DEFINITION_SHAPE ( 'NONE', 'NONE',  #823 ) ;
#671 = FILL_AREA_STYLE ('',( #194 ) ) ;
#672 = VERTEX_POINT ( 'NONE', #515 ) ;
#673 = DIRECTION ( 'NONE',  ( 0.000000000000000000, 1.000000000000000000, 0.000000000000000000 ) ) ;
#674 = DIRECTION ( 'NONE',  ( 0.000000000000000000, -1.000000000000000000, 0.000000000000000000 ) ) ;
#675 = SURFACE_STYLE_FILL_AREA ( #671 ) ;
#676 = AXIS2_PLACEMENT_3D ( 'NONE', #138, #848, #559 ) ;
#677 = EDGE_CURVE ( 'NONE', #576, #251, #16, .T. ) ;
#678 = ORIENTED_EDGE ( 'NONE', *, *, #422, .F. ) ;
#679 = DIRECTION ( 'NONE',  ( 0.000000000000000000, -1.000000000000000000, 0.000000000000000000 ) ) ;
#680 = DIRECTION ( 'NONE',  ( -0.000000000000000000, -1.000000000000000000, -0.000000000000000000 ) ) ;
#681 = AXIS2_PLACEMENT_3D ( 'NONE', #290, #711, #22 ) ;
#682 = ORIENTED_EDGE ( 'NONE', *, *, #440, .T. ) ;
#683 = CARTESIAN_POINT ( 'NONE',  ( 0.000000000000000000, 3.000000000000000000, -4.000000000000000000 ) ) ;
#684 = CARTESIAN_POINT ( 'NONE',  ( -6.000000000000000000, 8.399999999999996803, 1.499999999999999556 ) ) ;
#685 = DIRECTION ( 'NONE',  ( 0.000000000000000000, 1.000000000000000000, 0.000000000000000000 ) ) ;
#686 = CONICAL_SURFACE ( 'NONE', #616, 1.499999999999999556, 0.7853981633974482790 ) ;
#687 = ORIENTED_EDGE ( 'NONE', *, *, #766, .T. ) ;
#688 =( NAMED_UNIT ( * ) PLANE_ANGLE_UNIT ( ) SI_UNIT ( $, .RADIAN. ) );
#689 = FACE_OUTER_BOUND ( 'NONE', #24, .T. ) ;
#690 = AXIS2_PLACEMENT_3D ( 'NONE', #25, #371, #869 ) ;
#691 = ORIENTED_EDGE ( 'NONE', *, *, #219, .T. ) ;
#692 = DIRECTION ( 'NONE',  ( 0.000000000000000000, 0.000000000000000000, 1.000000000000000000 ) ) ;
#693 = EDGE_CURVE ( 'NONE', #660, #246, #278, .T. ) ;
#694 = LINE ( 'NONE', #67, #328 ) ;
#695 = ADVANCED_FACE ( 'NONE', ( #501 ), #783, .T. ) ;
#696 = CARTESIAN_POINT ( 'NONE',  ( -5.686725042113510042, 3.000000000000000000, 6.074690016845404550 ) ) ;
#697 = CLOSED_SHELL ( 'NONE', ( #796, #343, #75, #520, #574, #281, #902, #60, #166, #240, #225, #563, #847, #265, #714, #411, #721, #509, #736, #808, #322, #695, #249, #91, #28, #26, #496, #39, #793 ) ) ;
#698 = VERTEX_POINT ( 'NONE', #573 ) ;
#699 = CARTESIAN_POINT ( 'NONE',  ( 0.000000000000000000, 0.000000000000000000, 0.000000000000000000 ) ) ;
#700 = LINE ( 'NONE', #546, #461 ) ;
#701 = DIRECTION ( 'NONE',  ( -0.000000000000000000, -1.000000000000000000, -0.000000000000000000 ) ) ;
#702 = ORIENTED_EDGE ( 'NONE', *, *, #612, .F. ) ;
#703 = ORIENTED_EDGE ( 'NONE', *, *, #837, .F. ) ;
#704 = DIRECTION ( 'NONE',  ( -1.000000000000000000, -0.000000000000000000, -0.000000000000000000 ) ) ;
#705 = APPLICATION_CONTEXT ( 'automotive_design' ) ;
#706 = CARTESIAN_POINT ( 'NONE',  ( -6.000000000000000000, 3.000000000000000000, -7.000000000000000000 ) ) ;
#707 = EDGE_CURVE ( 'NONE', #629, #324, #755, .T. ) ;
#708 = UNCERTAINTY_MEASURE_WITH_UNIT (LENGTH_MEASURE( 1.000000000000000082E-05 ), #827, 'distance_accuracy_value', 'NONE');
#709 = ORIENTED_EDGE ( 'NONE', *, *, #693, .T. ) ;
#710 = CARTESIAN_POINT ( 'NONE',  ( -8.530087563170265952, -5.291502622129180544, -1.612035025268107713 ) ) ;
#711 = DIRECTION ( 'NONE',  ( -1.000000000000000000, 0.000000000000000000, 0.000000000000000000 ) ) ;
#712 = CIRCLE ( 'NONE', #436, 1.199999999999999734 ) ;
#713 = ORIENTED_EDGE ( 'NONE', *, *, #154, .T. ) ;
#714 = ADVANCED_FACE ( 'NONE', ( #260 ), #658, .F. ) ;
#715 = FACE_OUTER_BOUND ( 'NONE', #315, .T. ) ;
#716 = CARTESIAN_POINT ( 'NONE',  ( 0.000000000000000000, 2.000000000000000000, -4.000000000000000000 ) ) ;
#717 = ORIENTED_EDGE ( 'NONE', *, *, #155, .T. ) ;
#718 = AXIS2_PLACEMENT_3D ( 'NONE', #812, #399, #839 ) ;
#719 = ORIENTED_EDGE ( 'NONE', *, *, #173, .F. ) ;
#720 = CARTESIAN_POINT ( 'NONE',  ( 2.571758278209441957E-16, 3.000000000000000000, -6.100000000000000533 ) ) ;
#721 = ADVANCED_FACE ( 'NONE', ( #800, #537 ), #452, .T. ) ;
#722 = CARTESIAN_POINT ( 'NONE',  ( -4.000000000000000000, 0.000000000000000000, -7.000000000000000000 ) ) ;
#723 = DIRECTION ( 'NONE',  ( -0.000000000000000000, 1.000000000000000000, -0.000000000000000000 ) ) ;
#724 = ORIENTED_EDGE ( 'NONE', *, *, #455, .F. ) ;
#725 = CARTESIAN_POINT ( 'NONE',  ( 4.000000000000000000, 3.000000000000000000, 7.000000000000000000 ) ) ;
#726 = AXIS2_PLACEMENT_3D ( 'NONE', #806, #669, #41 ) ;
#727 = CARTESIAN_POINT ( 'NONE',  ( 1.469576158976823553E-16, 3.000000000000000000, -2.800000000000000266 ) ) ;
#728 = EDGE_CURVE ( 'NONE', #862, #617, #818, .T. ) ;
#729 = SURFACE_STYLE_USAGE ( .BOTH. , #121 ) ;
#730 = VECTOR ( 'NONE', #348, 1000.000000000000000 ) ;
#731 = EDGE_LOOP ( 'NONE', ( #85, #663, #238, #510 ) ) ;
#732 = CARTESIAN_POINT ( 'NONE',  ( -6.000000000000000000, 9.000000000000001776, 0.000000000000000000 ) ) ;
#733 = CARTESIAN_POINT ( 'NONE',  ( 4.000000000000000000, 0.000000000000000000, 5.000000000000000000 ) ) ;
#734 = EDGE_LOOP ( 'NONE', ( #216, #738, #639, #170 ) ) ;
#735 = DIRECTION ( 'NONE',  ( 0.000000000000000000, 0.000000000000000000, 1.000000000000000000 ) ) ;
#736 = ADVANCED_FACE ( 'NONE', ( #112 ), #463, .T. ) ;
#737 = EDGE_CURVE ( 'NONE', #500, #364, #355, .T. ) ;
#738 = ORIENTED_EDGE ( 'NONE', *, *, #396, .T. ) ;
#739 = CARTESIAN_POINT ( 'NONE',  ( -6.000000000000000000, 9.000000000000001776, 2.100000000000004530 ) ) ;
#740 = AXIS2_PLACEMENT_3D ( 'NONE', #239, #284, #569 ) ;
#741 = AXIS2_PLACEMENT_3D ( 'NONE', #632, #655, #864 ) ;
#742 = ORIENTED_EDGE ( 'NONE', *, *, #534, .T. ) ;
#743 = CARTESIAN_POINT ( 'NONE',  ( -6.000000000000000000, 3.000000000000000000, -7.000000000000000000 ) ) ;
#744 = AXIS2_PLACEMENT_3D ( 'NONE', #497, #150, #356 ) ;
#745 = PLANE ( 'NONE',  #346 ) ;
#746 = VERTEX_POINT ( 'NONE', #739 ) ;
#747 = DIRECTION ( 'NONE',  ( 0.000000000000000000, 1.000000000000000000, 0.000000000000000000 ) ) ;
#748 = EDGE_CURVE ( 'NONE', #387, #126, #592, .T. ) ;
#749 = CARTESIAN_POINT ( 'NONE',  ( -6.000000000000000000, 3.000000000000000000, 7.000000000000000000 ) ) ;
#750 = AXIS2_PLACEMENT_3D ( 'NONE', #127, #263, #2 ) ;
#751 = CYLINDRICAL_SURFACE ( 'NONE', #804, 1.199999999999999734 ) ;
#752 = ORIENTED_EDGE ( 'NONE', *, *, #329, .F. ) ;
#753 = PRODUCT_CONTEXT ( 'NONE', #406, 'mechanical' ) ;
#754 = DIRECTION ( 'NONE',  ( 0.000000000000000000, 0.000000000000000000, 1.000000000000000000 ) ) ;
#755 = CIRCLE ( 'NONE', #801, 2.000000000000000000 ) ;
#756 = ORIENTED_EDGE ( 'NONE', *, *, #778, .F. ) ;
#757 = CARTESIAN_POINT ( 'NONE',  ( 4.000000000000000000, 3.000000000000000000, -5.000000000000000000 ) ) ;
#758 = AXIS2_PLACEMENT_3D ( 'NONE', #147, #701, #78 ) ;
#759 = CARTESIAN_POINT ( 'NONE',  ( 0.000000000000000000, 3.000000000000000000, -4.000000000000000000 ) ) ;
#760 = ORIENTED_EDGE ( 'NONE', *, *, #429, .F. ) ;
#761 = CARTESIAN_POINT ( 'NONE',  ( 0.000000000000000000, 2.000000000000000000, 4.000000000000000000 ) ) ;
#762 = DIRECTION ( 'NONE',  ( 0.000000000000000000, 1.000000000000000000, 0.000000000000000000 ) ) ;
#763 = EDGE_CURVE ( 'NONE', #511, #276, #184, .T. ) ;
#764 = ORIENTED_EDGE ( 'NONE', *, *, #51, .F. ) ;
#765 = CARTESIAN_POINT ( 'NONE',  ( -8.530087563170265952, 3.000000000000000000, 1.612035025268107935 ) ) ;
#766 = EDGE_CURVE ( 'NONE', #852, #483, #810, .T. ) ;
#767 = CARTESIAN_POINT ( 'NONE',  ( 6.000000000000000000, 0.000000000000000000, -7.000000000000000000 ) ) ;
#768 = DIRECTION ( 'NONE',  ( -0.000000000000000000, -1.000000000000000000, -0.000000000000000000 ) ) ;
#769 = AXIS2_PLACEMENT_3D ( 'NONE', #331, #214, #209 ) ;
#770 = ORIENTED_EDGE ( 'NONE', *, *, #422, .T. ) ;
#771 = LINE ( 'NONE', #12, #492 ) ;
#772 = DIRECTION ( 'NONE',  ( 0.000000000000000000, 0.000000000000000000, 1.000000000000000000 ) ) ;
#773 = CIRCLE ( 'NONE', #282, 3.000000000000001332 ) ;
#774 = AXIS2_PLACEMENT_3D ( 'NONE', #253, #542, #401 ) ;
#775 = ORIENTED_EDGE ( 'NONE', *, *, #248, .T. ) ;
#776 = ORIENTED_EDGE ( 'NONE', *, *, #728, .T. ) ;
#777 = FACE_OUTER_BOUND ( 'NONE', #203, .T. ) ;
#778 = EDGE_CURVE ( 'NONE', #857, #188, #142, .T. ) ;
#779 = CARTESIAN_POINT ( 'NONE',  ( -5.686725042113509154, -5.291502622129180544, -6.074690016845404550 ) ) ;
#780 = AXIS2_PLACEMENT_3D ( 'NONE', #114, #384, #735 ) ;
#781 = ORIENTED_EDGE ( 'NONE', *, *, #208, .T. ) ;
#782 = ORIENTED_EDGE ( 'NONE', *, *, #737, .F. ) ;
#783 = PLANE ( 'NONE',  #562 ) ;
#784 = FACE_OUTER_BOUND ( 'NONE', #607, .T. ) ;
#785 = ORIENTED_EDGE ( 'NONE', *, *, #552, .F. ) ;
#786 = DIRECTION ( 'NONE',  ( 0.000000000000000000, 1.000000000000000000, 0.000000000000000000 ) ) ;
#787 = DIRECTION ( 'NONE',  ( 1.000000000000000000, 0.000000000000000000, 0.000000000000000000 ) ) ;
#788 = EDGE_LOOP ( 'NONE', ( #752, #361, #222, #338 ) ) ;
#789 = ORIENTED_EDGE ( 'NONE', *, *, #707, .T. ) ;
#790 = DIRECTION ( 'NONE',  ( 0.000000000000000000, -0.000000000000000000, 1.000000000000000000 ) ) ;
#791 = CARTESIAN_POINT ( 'NONE',  ( 0.000000000000000000, 3.000000000000000000, 4.000000000000000000 ) ) ;
#792 = DIRECTION ( 'NONE',  ( 0.000000000000000000, 0.000000000000000000, 1.000000000000000000 ) ) ;
#793 = ADVANCED_FACE ( 'NONE', ( #49 ), #323, .F. ) ;
#794 = ORIENTED_EDGE ( 'NONE', *, *, #707, .F. ) ;
#795 = LINE ( 'NONE', #643, #14 ) ;
#796 = ADVANCED_FACE ( 'NONE', ( #457 ), #686, .F. ) ;
#797 = DIRECTION ( 'NONE',  ( 0.5373450084227023860, 0.000000000000000000, 0.8433625210567552433 ) ) ;
#798 = CARTESIAN_POINT ( 'NONE',  ( 6.000000000000000000, 3.000000000000000000, -7.000000000000000000 ) ) ;
#799 = VERTEX_POINT ( 'NONE', #887 ) ;
#800 = FACE_BOUND ( 'NONE', #487, .T. ) ;
#801 = AXIS2_PLACEMENT_3D ( 'NONE', #858, #786, #158 ) ;
#802 = CARTESIAN_POINT ( 'NONE',  ( -6.000000000000000000, 0.000000000000000000, 7.000000000000000000 ) ) ;
#803 = AXIS2_PLACEMENT_3D ( 'NONE', #408, #903, #772 ) ;
#804 = AXIS2_PLACEMENT_3D ( 'NONE', #651, #100, #125 ) ;
#805 = VERTEX_POINT ( 'NONE', #247 ) ;
#806 = CARTESIAN_POINT ( 'NONE',  ( 0.000000000000000000, 2.000000000000000000, -4.000000000000000000 ) ) ;
#807 = LINE ( 'NONE', #394, #850 ) ;
#808 = ADVANCED_FACE ( 'NONE', ( #123 ), #255, .T. ) ;
#809 = ORIENTED_EDGE ( 'NONE', *, *, #182, .T. ) ;
#810 = LINE ( 'NONE', #244, #594 ) ;
#811 = EDGE_LOOP ( 'NONE', ( #881, #113, #687, #518 ) ) ;
#812 = CARTESIAN_POINT ( 'NONE',  ( 0.000000000000000000, 0.000000000000000000, 0.000000000000000000 ) ) ;
#813 = VECTOR ( 'NONE', #165, 1000.000000000000000 ) ;
#814 =( NAMED_UNIT ( * ) SI_UNIT ( $, .STERADIAN. ) SOLID_ANGLE_UNIT ( ) );
#815 = EDGE_CURVE ( 'NONE', #528, #234, #316, .T. ) ;
#816 = CIRCLE ( 'NONE', #453, 2.100000000000000089 ) ;
#817 = ORIENTED_EDGE ( 'NONE', *, *, #815, .F. ) ;
#818 = LINE ( 'NONE', #608, #488 ) ;
#819 = CIRCLE ( 'NONE', #419, 1.499999999999999556 ) ;
#820 = LINE ( 'NONE', #390, #890 ) ;
#821 = ORIENTED_EDGE ( 'NONE', *, *, #593, .F. ) ;
#822 = CARTESIAN_POINT ( 'NONE',  ( -6.000000000000000000, 3.000000000000000000, 1.499999999999999556 ) ) ;
#823 = PRODUCT_DEFINITION ( 'UNKNOWN', '', #220, #89 ) ;
#824 = VECTOR ( 'NONE', #679, 1000.000000000000000 ) ;
#825 = CYLINDRICAL_SURFACE ( 'NONE', #74, 2.100000000000000089 ) ;
#826 = ORIENTED_EDGE ( 'NONE', *, *, #130, .T. ) ;
#827 =( LENGTH_UNIT ( ) NAMED_UNIT ( * ) SI_UNIT ( .MILLI., .METRE. ) );
#828 = LINE ( 'NONE', #767, #730 ) ;
#829 = CARTESIAN_POINT ( 'NONE',  ( 0.000000000000000000, 3.000000000000000000, 2.800000000000000266 ) ) ;
#830 = CIRCLE ( 'NONE', #690, 2.100000000000000089 ) ;
#831 = ORIENTED_EDGE ( 'NONE', *, *, #440, .F. ) ;
#832 = FACE_OUTER_BOUND ( 'NONE', #212, .T. ) ;
#833 = DIRECTION ( 'NONE',  ( 1.000000000000000000, 0.000000000000000000, 0.000000000000000000 ) ) ;
#834 = CIRCLE ( 'NONE', #803, 2.100000000000000089 ) ;
#835 = DIRECTION ( 'NONE',  ( 0.000000000000000000, 0.000000000000000000, -1.000000000000000000 ) ) ;
#836 = EDGE_CURVE ( 'NONE', #188, #857, #855, .T. ) ;
#837 = EDGE_CURVE ( 'NONE', #852, #540, #883, .T. ) ;
#838 = EDGE_LOOP ( 'NONE', ( #61, #646, #785, #157 ) ) ;
#839 = DIRECTION ( 'NONE',  ( 0.000000000000000000, -0.000000000000000000, 1.000000000000000000 ) ) ;
#840 = DIRECTION ( 'NONE',  ( 0.000000000000000000, 0.000000000000000000, 1.000000000000000000 ) ) ;
#841 = DIRECTION ( 'NONE',  ( -1.000000000000000000, -0.000000000000000000, -0.000000000000000000 ) ) ;
#842 = ORIENTED_EDGE ( 'NONE', *, *, #650, .T. ) ;
#843 = DIRECTION ( 'NONE',  ( -0.000000000000000000, 1.000000000000000000, -0.000000000000000000 ) ) ;
#844 = DIRECTION ( 'NONE',  ( 0.000000000000000000, 0.000000000000000000, 1.000000000000000000 ) ) ;
#845 = CIRCLE ( 'NONE', #168, 2.000000000000000000 ) ;
#846 = EDGE_LOOP ( 'NONE', ( #404, #80, #480, #523 ) ) ;
#847 = ADVANCED_FACE ( 'NONE', ( #532, #596, #180 ), #880, .F. ) ;
#848 = DIRECTION ( 'NONE',  ( -0.000000000000000000, 1.000000000000000000, -0.000000000000000000 ) ) ;
#849 = CARTESIAN_POINT ( 'NONE',  ( -6.000000000000000000, 9.000000000000001776, 3.000000000000001332 ) ) ;
#850 = VECTOR ( 'NONE', #674, 1000.000000000000000 ) ;
#851 = CIRCLE ( 'NONE', #285, 2.000000000000000000 ) ;
#852 = VERTEX_POINT ( 'NONE', #822 ) ;
#853 = DIRECTION ( 'NONE',  ( 0.000000000000000000, 0.000000000000000000, 1.000000000000000000 ) ) ;
#854 = EDGE_CURVE ( 'NONE', #805, #561, #602, .T. ) ;
#855 = CIRCLE ( 'NONE', #530, 1.199999999999999734 ) ;
#856 = ORIENTED_EDGE ( 'NONE', *, *, #866, .T. ) ;
#857 = VERTEX_POINT ( 'NONE', #339 ) ;
#858 = CARTESIAN_POINT ( 'NONE',  ( 4.000000000000000000, 3.000000000000000000, 5.000000000000000000 ) ) ;
#859 = FACE_OUTER_BOUND ( 'NONE', #846, .T. ) ;
#860 = AXIS2_PLACEMENT_3D ( 'NONE', #37, #223, #853 ) ;
#861 = VERTEX_POINT ( 'NONE', #621 ) ;
#862 = VERTEX_POINT ( 'NONE', #484 ) ;
#863 = CYLINDRICAL_SURFACE ( 'NONE', #533, 3.000000000000001332 ) ;
#864 = DIRECTION ( 'NONE',  ( 0.000000000000000000, 0.000000000000000000, 1.000000000000000000 ) ) ;
#865 = CIRCLE ( 'NONE', #257, 2.000000000000000000 ) ;
#866 = EDGE_CURVE ( 'NONE', #350, #746, #572, .T. ) ;
#867 = VECTOR ( 'NONE', #266, 1000.000000000000114 ) ;
#868 = ORIENTED_EDGE ( 'NONE', *, *, #443, .F. ) ;
#869 = DIRECTION ( 'NONE',  ( 0.000000000000000000, 0.000000000000000000, 1.000000000000000000 ) ) ;
#870 = CARTESIAN_POINT ( 'NONE',  ( -8.530087563170265952, 3.000000000000000000, -1.612035025268107713 ) ) ;
#871 = ORIENTED_EDGE ( 'NONE', *, *, #352, .F. ) ;
#872 = LINE ( 'NONE', #97, #633 ) ;
#873 = LINE ( 'NONE', #727, #652 ) ;
#874 = ORIENTED_EDGE ( 'NONE', *, *, #232, .F. ) ;
#875 = DIRECTION ( 'NONE',  ( -0.5373450084227024970, -0.000000000000000000, 0.8433625210567552433 ) ) ;
#876 = AXIS2_PLACEMENT_3D ( 'NONE', #171, #107, #377 ) ;
#877 = EDGE_CURVE ( 'NONE', #645, #192, #196, .T. ) ;
#878 = AXIS2_PLACEMENT_3D ( 'NONE', #202, #762, #351 ) ;
#879 = ORIENTED_EDGE ( 'NONE', *, *, #341, .F. ) ;
#880 = PLANE ( 'NONE',  #718 ) ;
#881 = ORIENTED_EDGE ( 'NONE', *, *, #273, .F. ) ;
#882 = DIRECTION ( 'NONE',  ( 0.000000000000000000, 1.000000000000000000, 0.000000000000000000 ) ) ;
#883 = CIRCLE ( 'NONE', #178, 1.499999999999999556 ) ;
#884 = DIRECTION ( 'NONE',  ( 0.000000000000000000, 1.000000000000000000, 0.000000000000000000 ) ) ;
#885 = FACE_BOUND ( 'NONE', #591, .T. ) ;
#886 = VERTEX_POINT ( 'NONE', #549 ) ;
#887 = CARTESIAN_POINT ( 'NONE',  ( 6.000000000000000000, 0.000000000000000000, -5.000000000000000000 ) ) ;
#888 = CIRCLE ( 'NONE', #769, 2.000000000000000000 ) ;
#889 = DIRECTION ( 'NONE',  ( -0.000000000000000000, -1.000000000000000000, -0.000000000000000000 ) ) ;
#890 = VECTOR ( 'NONE', #889, 1000.000000000000000 ) ;
#891 = ORIENTED_EDGE ( 'NONE', *, *, #763, .F. ) ;
#892 = CARTESIAN_POINT ( 'NONE',  ( -4.000000000000000000, 3.000000000000000000, 5.000000000000000000 ) ) ;
#893 =( GEOMETRIC_REPRESENTATION_CONTEXT ( 3 ) GLOBAL_UNCERTAINTY_ASSIGNED_CONTEXT ( ( #434 ) ) GLOBAL_UNIT_ASSIGNED_CONTEXT ( ( #391, #105, #814 ) ) REPRESENTATION_CONTEXT ( 'NONE', 'WORKASPACE' ) );
#894 = DIRECTION ( 'NONE',  ( 0.000000000000000000, 0.000000000000000000, 1.000000000000000000 ) ) ;
#895 = CARTESIAN_POINT ( 'NONE',  ( 6.000000000000000000, 3.000000000000000000, -5.000000000000000000 ) ) ;
#896 = EDGE_LOOP ( 'NONE', ( #794, #370, #879, #760 ) ) ;
#897 = CARTESIAN_POINT ( 'NONE',  ( -6.000000000000000000, 3.000000000000000000, -1.499999999999999556 ) ) ;
#898 = AXIS2_PLACEMENT_3D ( 'NONE', #892, #381, #53 ) ;
#899 = ORIENTED_EDGE ( 'NONE', *, *, #313, .F. ) ;
#900 = EDGE_CURVE ( 'NONE', #288, #886, #10, .T. ) ;
#901 = CARTESIAN_POINT ( 'NONE',  ( 0.000000000000000000, 2.000000000000000000, 2.800000000000000266 ) ) ;
#902 = ADVANCED_FACE ( 'NONE', ( #832 ), #405, .F. ) ;
#903 = DIRECTION ( 'NONE',  ( 0.000000000000000000, 1.000000000000000000, 0.000000000000000000 ) ) ;
ENDSEC;
END-ISO-10303-21;
